<svg width="24" height="24" viewBox="0 0 24 24" fill="none" xmlns="http://www.w3.org/2000/svg">
<path d="M17.3571 1.89474C15.1446 1.89474 13.2075 2.84617 12 4.45439C10.7925 2.84617 8.85536 1.89474 6.64286 1.89474C4.88167 1.89673 3.19319 2.59724 1.94784 3.84259C0.702493 5.08793 0.00198508 6.77642 0 8.5376C0 16.0376 11.1204 22.1083 11.5939 22.359C11.7187 22.4262 11.8583 22.4613 12 22.4613C12.1417 22.4613 12.2813 22.4262 12.4061 22.359C12.8796 22.1083 24 16.0376 24 8.5376C23.998 6.77642 23.2975 5.08793 22.0522 3.84259C20.8068 2.59724 19.1183 1.89673 17.3571 1.89474ZM12.4061 6.00001C10.4496 4.86001 3.47368 15.542 3.47368 9.78948C3.47539 8.48287 2.35253 14.7001 7.26316 9.78948C8.18708 8.86556 8.48286 8.84381 9.78947 8.84211C11.8734 8.84211 10.3219 5.10533 11.0526 6.88819C11.1172 7.0454 11.3816 6.79356 11.5227 6.88819C11.6639 6.98282 11.83 7.03334 12 7.03334C12.17 7.03334 12.3361 6.98282 12.4772 6.88819C12.6184 6.79356 12.7283 6.6591 12.7929 6.50189C13.5236 4.71582 12.1266 7.89475 14.2105 7.89475C15.5171 7.89645 14.5498 7.9182 15.4737 8.84211C16.3976 9.76603 22.4109 13.579 21.4737 8.84211C21.4737 14.586 14.3604 4.85894 12.4061 6.00001Z" fill="#CF1B2B"/>
</svg>
