<svg width="24" height="24" viewBox="0 0 24 24" fill="none" xmlns="http://www.w3.org/2000/svg">
<path d="M9.25003 4.5V5H9.75003H14.25H14.75V4.5V3.75C14.75 3.41848 14.6183 3.10054 14.3839 2.86612C14.1495 2.6317 13.8315 2.5 13.5 2.5H10.5C10.1685 2.5 9.85056 2.6317 9.61614 2.86612C9.38172 3.10054 9.25003 3.41848 9.25003 3.75V4.5ZM16 4.5V5H16.5H20.625C20.7908 5 20.9498 5.06585 21.067 5.18306C21.1842 5.30027 21.25 5.45924 21.25 5.625C21.25 5.79076 21.1842 5.94973 21.067 6.06694C20.9498 6.18415 20.7908 6.25 20.625 6.25H20.157H19.6774L19.6575 6.72917L19.1805 18.1667C19.1375 19.1977 18.6977 20.1722 17.953 20.8866C17.2083 21.6009 16.2164 21.9998 15.1845 22C15.1845 22 15.1845 22 15.1845 22H8.81703H8.81692C7.78478 22.0002 6.7925 21.6014 6.04753 20.887C5.30259 20.1726 4.86262 19.198 4.81959 18.1667C4.81959 18.1667 4.81959 18.1667 4.81959 18.1667L4.34409 6.72923L4.32417 6.25H3.84453H3.37653C3.21077 6.25 3.05179 6.18415 2.93458 6.06694L2.5857 6.41582L2.93458 6.06694C2.81737 5.94973 2.75153 5.79076 2.75153 5.625C2.75153 5.45924 2.81737 5.30027 2.93458 5.18306C3.05179 5.06585 3.21077 5 3.37653 5H7.50003H8.00003V4.5V3.75C8.00003 3.08696 8.26342 2.45107 8.73226 1.98223C9.2011 1.51339 9.83699 1.25 10.5 1.25H13.5C14.1631 1.25 14.799 1.51339 15.2678 1.98223C15.7366 2.45107 16 3.08696 16 3.75V4.5ZM18.4036 6.77081L18.4253 6.25H17.904H6.09603H5.57476L5.59646 6.77081L6.06895 18.1137C6.06896 18.1137 6.06896 18.1138 6.06896 18.1138C6.09833 18.8229 6.4007 19.4932 6.91286 19.9845C7.42502 20.4758 8.1073 20.7501 8.81703 20.75C8.81706 20.75 8.81709 20.75 8.81712 20.75H15.1845H15.1848C15.8942 20.7497 16.5761 20.4752 17.0879 19.9839C17.5996 19.4926 17.9017 18.8226 17.9311 18.1138C17.9311 18.1138 17.9311 18.1137 17.9311 18.1137L18.4036 6.77081ZM9.30808 17.6919L8.95453 18.0455L9.30808 17.6919C9.19087 17.5747 9.12503 17.4158 9.12503 17.25V9.75C9.12503 9.58424 9.19087 9.42527 9.30808 9.30806C9.42529 9.19085 9.58427 9.125 9.75003 9.125C9.91579 9.125 10.0748 9.19085 10.192 9.30806C10.3092 9.42527 10.375 9.58424 10.375 9.75V17.25C10.375 17.4158 10.3092 17.5747 10.192 17.6919C10.0748 17.8092 9.91579 17.875 9.75003 17.875C9.58427 17.875 9.42529 17.8092 9.30808 17.6919ZM14.25 9.125C14.4158 9.125 14.5748 9.19085 14.692 9.30806C14.8092 9.42527 14.875 9.58424 14.875 9.75V17.25C14.875 17.4158 14.8092 17.5747 14.692 17.6919C14.5748 17.8092 14.4158 17.875 14.25 17.875C14.0843 17.875 13.9253 17.8092 13.8081 17.6919C13.6909 17.5747 13.625 17.4158 13.625 17.25V9.75C13.625 9.58424 13.6909 9.42527 13.8081 9.30806C13.9253 9.19085 14.0843 9.125 14.25 9.125Z" fill="#1A1A1A" stroke="#1A1A1A"/>
</svg>
