<svg width="24" height="19" viewBox="0 0 24 19" fill="none" xmlns="http://www.w3.org/2000/svg">
<g clip-path="url(#clip0_220_2039)">
<path d="M4.36311 18.5635V17.3287C4.36311 16.8553 4.07492 16.5467 3.58095 16.5467C3.33401 16.5467 3.06645 16.629 2.8812 16.8966C2.7372 16.6702 2.53142 16.5467 2.2227 16.5467C2.01683 16.5467 1.81114 16.6084 1.64642 16.8348V16.5878H1.21423V18.5635H1.64642V17.4728C1.64642 17.123 1.83167 16.9582 2.11986 16.9582C2.40786 16.9582 2.55205 17.1435 2.55205 17.4728V18.5635H2.98423V17.4728C2.98423 17.123 3.18992 16.9582 3.45748 16.9582C3.74567 16.9582 3.88967 17.1435 3.88967 17.4728V18.5635H4.36311ZM10.7635 16.5878H10.0639V15.991H9.63167V16.5878H9.24064V16.9788H9.63158V17.8844C9.63158 18.3372 9.81683 18.6047 10.3108 18.6047C10.496 18.6047 10.7017 18.543 10.8459 18.4607L10.7224 18.0902C10.5989 18.1725 10.4549 18.1931 10.352 18.1931C10.1462 18.1931 10.0639 18.0697 10.0639 17.8638V16.9788H10.7635V16.5878ZM14.4269 16.5466C14.18 16.5466 14.0153 16.6702 13.9124 16.8348V16.5878H13.4802V18.5635H13.9124V17.4522C13.9124 17.123 14.0564 16.9377 14.324 16.9377C14.4063 16.9377 14.5092 16.9583 14.5915 16.9789L14.715 16.5673C14.6327 16.5467 14.5092 16.5467 14.4269 16.5467M8.89076 16.7526C8.68489 16.6085 8.3968 16.5468 8.08808 16.5468C7.5942 16.5468 7.26495 16.7937 7.26495 17.1847C7.26495 17.5141 7.51189 17.6992 7.94408 17.761L8.14986 17.7817C8.37626 17.8227 8.49973 17.8845 8.49973 17.9874C8.49973 18.1314 8.33511 18.2344 8.04692 18.2344C7.75883 18.2344 7.53242 18.1314 7.38833 18.0286L7.18255 18.3578C7.40895 18.5225 7.71767 18.6048 8.0263 18.6048C8.60258 18.6048 8.93192 18.3373 8.93192 17.9668C8.93192 17.6169 8.66436 17.4317 8.2527 17.37L8.04692 17.3494C7.86167 17.3287 7.71767 17.2877 7.71767 17.1642C7.71767 17.0201 7.86167 16.9378 8.08808 16.9378C8.33511 16.9378 8.58205 17.0407 8.70551 17.1024L8.89076 16.7526ZM20.3747 16.5468C20.1276 16.5468 19.963 16.6703 19.8601 16.8349V16.5879H19.4279V18.5636H19.8601V17.4523C19.8601 17.1231 20.0042 16.9378 20.2716 16.9378C20.354 16.9378 20.457 16.9584 20.5393 16.979L20.6628 16.5674C20.5805 16.5468 20.457 16.5468 20.3747 16.5468ZM14.8591 17.5758C14.8591 18.1726 15.2706 18.6048 15.9087 18.6048C16.1968 18.6048 16.4026 18.5431 16.6084 18.3785L16.4026 18.0286C16.238 18.1521 16.0733 18.2137 15.8881 18.2137C15.5382 18.2137 15.2913 17.9668 15.2913 17.5758C15.2913 17.2054 15.5382 16.9583 15.8881 16.9378C16.0733 16.9378 16.238 16.9995 16.4026 17.1231L16.6084 16.7732C16.4026 16.6085 16.1968 16.5468 15.9087 16.5468C15.2706 16.5468 14.8591 16.979 14.8591 17.5758ZM18.8517 17.5758V16.5879H18.4195V16.8349C18.2754 16.6497 18.0696 16.5468 17.8021 16.5468C17.2464 16.5468 16.8142 16.979 16.8142 17.5758C16.8142 18.1726 17.2464 18.6048 17.8021 18.6048C18.0902 18.6048 18.296 18.5019 18.4195 18.3167V18.5636H18.8517V17.5758ZM17.267 17.5758C17.267 17.2259 17.4934 16.9378 17.8638 16.9378C18.2136 16.9378 18.4607 17.2054 18.4607 17.5758C18.4607 17.9257 18.2136 18.2137 17.8638 18.2137C17.4934 18.1931 17.267 17.9257 17.267 17.5758ZM12.1013 16.5468C11.525 16.5468 11.1134 16.9583 11.1134 17.5758C11.1134 18.1932 11.525 18.6048 12.1219 18.6048C12.41 18.6048 12.6981 18.5225 12.9245 18.3373L12.7187 18.0286C12.554 18.1521 12.3483 18.2344 12.1425 18.2344C11.8749 18.2344 11.6074 18.1109 11.5456 17.7609H13.0069V17.5964C13.0275 16.9583 12.6571 16.5468 12.1013 16.5468ZM12.1012 16.9172C12.3687 16.9172 12.554 17.0819 12.5951 17.3906H11.5661C11.6073 17.1231 11.7925 16.9172 12.1012 16.9172ZM22.8236 17.5758V15.8059H22.3914V16.8349C22.2473 16.6497 22.0415 16.5468 21.774 16.5468C21.2183 16.5468 20.7861 16.979 20.7861 17.5758C20.7861 18.1726 21.2183 18.6048 21.774 18.6048C22.0622 18.6048 22.268 18.5019 22.3914 18.3167V18.5636H22.8236V17.5758ZM21.239 17.5758C21.239 17.2259 21.4653 16.9378 21.8358 16.9378C22.1856 16.9378 22.4326 17.2054 22.4326 17.5758C22.4326 17.9257 22.1856 18.2137 21.8358 18.2137C21.4653 18.1931 21.239 17.9257 21.239 17.5758ZM6.79142 17.5758V16.5879H6.35923V16.8349C6.21514 16.6497 6.00936 16.5468 5.7418 16.5468C5.18614 16.5468 4.75395 16.979 4.75395 17.5758C4.75395 18.1726 5.18614 18.6048 5.7418 18.6048C6.02998 18.6048 6.23576 18.5019 6.35923 18.3167V18.5636H6.79142V17.5758ZM5.18614 17.5758C5.18614 17.2259 5.41255 16.9378 5.78295 16.9378C6.13283 16.9378 6.37986 17.2054 6.37986 17.5758C6.37986 17.9257 6.13283 18.2137 5.78295 18.2137C5.41255 18.1931 5.18614 17.9257 5.18614 17.5758Z" fill="black"/>
<path d="M8.7467 1.58466H15.2295V13.2332H8.7467V1.58466Z" fill="#FF5F00"/>
<path d="M9.15834 7.40897C9.15834 5.04225 10.2697 2.943 11.9778 1.58466C10.7225 0.596812 9.13781 0 7.40906 0C3.31341 0 0 3.31341 0 7.40897C0 11.5044 3.31341 14.8179 7.40897 14.8179C9.13772 14.8179 10.7224 14.2211 11.9778 13.2332C10.2697 11.8955 9.15834 9.77569 9.15834 7.40897Z" fill="#EB001B"/>
<path d="M23.9762 7.40897C23.9762 11.5044 20.6628 14.8179 16.5672 14.8179C14.8385 14.8179 13.2538 14.2211 11.9984 13.2332C13.7272 11.8749 14.8179 9.77569 14.8179 7.40897C14.8179 5.04225 13.7065 2.943 11.9984 1.58466C13.2537 0.596812 14.8385 0 16.5672 0C20.6628 0 23.9762 3.33403 23.9762 7.40897Z" fill="#F79E1B"/>
</g>
<defs>
<clipPath id="clip0_220_2039">
<rect width="24" height="18.6562" fill="white"/>
</clipPath>
</defs>
</svg>
