<svg width="16" height="16" viewBox="0 0 16 16" fill="none" xmlns="http://www.w3.org/2000/svg">
<path d="M14.7075 4.58562L11.4144 1.29312C11.3215 1.20024 11.2113 1.12656 11.0899 1.07629C10.9686 1.02602 10.8385 1.00015 10.7072 1.00015C10.5758 1.00015 10.4458 1.02602 10.3244 1.07629C10.2031 1.12656 10.0928 1.20024 9.99999 1.29312L1.29249 10C1.1996 10.0929 1.12592 10.2031 1.07565 10.3245C1.02539 10.4458 0.999512 10.5758 0.999512 10.7072C0.999512 10.8385 1.02539 10.9686 1.07565 11.0899C1.12592 11.2113 1.1996 11.3215 1.29249 11.4144L4.58561 14.7069C4.67847 14.7998 4.78872 14.8734 4.91006 14.9237C5.0314 14.974 5.16146 14.9998 5.2928 14.9998C5.42414 14.9998 5.55419 14.974 5.67553 14.9237C5.79688 14.8734 5.90712 14.7998 5.99999 14.7069L14.7075 6C14.8004 5.90714 14.8741 5.79689 14.9243 5.67555C14.9746 5.55421 15.0005 5.42415 15.0005 5.29281C15.0005 5.16147 14.9746 5.03142 14.9243 4.91008C14.8741 4.78874 14.8004 4.67849 14.7075 4.58562ZM5.29249 14L1.99999 10.7069L3.99999 8.70687L5.64624 10.3538C5.69269 10.4002 5.74784 10.4371 5.80854 10.4622C5.86923 10.4873 5.93429 10.5003 5.99999 10.5003C6.06568 10.5003 6.13074 10.4873 6.19143 10.4622C6.25213 10.4371 6.30728 10.4002 6.35374 10.3538C6.40019 10.3073 6.43704 10.2521 6.46218 10.1914C6.48732 10.1308 6.50026 10.0657 6.50026 10C6.50026 9.9343 6.48732 9.86925 6.46218 9.80855C6.43704 9.74786 6.40019 9.69271 6.35374 9.64625L4.70686 8L5.99999 6.70687L7.64624 8.35375C7.74006 8.44757 7.8673 8.50028 7.99999 8.50028C8.13267 8.50028 8.25992 8.44757 8.35374 8.35375C8.44756 8.25993 8.50027 8.13268 8.50027 8C8.50027 7.86732 8.44756 7.74007 8.35374 7.64625L6.70686 6L7.99999 4.70687L9.64624 6.35375C9.69269 6.4002 9.74784 6.43706 9.80854 6.4622C9.86924 6.48734 9.93429 6.50028 9.99999 6.50028C10.0657 6.50028 10.1307 6.48734 10.1914 6.4622C10.2521 6.43706 10.3073 6.4002 10.3537 6.35375C10.4002 6.30729 10.437 6.25214 10.4622 6.19145C10.4873 6.13075 10.5003 6.0657 10.5003 6C10.5003 5.9343 10.4873 5.86925 10.4622 5.80855C10.437 5.74785 10.4002 5.6927 10.3537 5.64625L8.70686 4L10.7069 2L14 5.29312L5.29249 14Z" fill="#1A1A1A"/>
</svg>
