<svg width="24" height="8" viewBox="0 0 24 8" fill="none" xmlns="http://www.w3.org/2000/svg">
<g clip-path="url(#clip0_220_2040)">
<path d="M12.4122 2.4563C12.3985 3.52664 13.3744 4.12389 14.1095 4.47903C14.8647 4.84336 15.1184 5.07702 15.1154 5.40288C15.1098 5.90152 14.513 6.12161 13.9545 6.13016C12.9802 6.14513 12.4136 5.86936 11.9633 5.6608L11.6122 7.28907C12.0641 7.4955 12.9008 7.67553 13.7685 7.68343C15.8052 7.68343 17.1377 6.68671 17.1449 5.14134C17.1529 3.18005 14.4085 3.07149 14.4273 2.19485C14.4338 1.92904 14.6896 1.64537 15.2502 1.57325C15.5277 1.53682 16.2937 1.50893 17.1623 1.90543L17.5031 0.330041C17.0361 0.161443 16.4358 0 15.6884 0C13.7714 0 12.4231 1.01029 12.4122 2.4563ZM20.7786 0.135697C20.4067 0.135697 20.0933 0.350768 19.9534 0.680809L17.044 7.56771H19.0793L19.4842 6.45806H21.9713L22.2062 7.56771H24L22.4347 0.135697H20.7786ZM21.0633 2.14336L21.6506 4.93417H20.0421L21.0633 2.14336ZM9.94462 0.13579L8.34037 7.56762H10.2798L11.8833 0.135604L9.94462 0.13579ZM7.07559 0.13579L5.05697 5.19422L4.24041 0.893091C4.14459 0.412947 3.76622 0.135697 3.34603 0.135697H0.0462187L0 0.351511C0.677437 0.497246 1.44712 0.732299 1.91344 0.983804C2.19881 1.13744 2.28019 1.27174 2.37394 1.63682L3.92053 7.56771H5.97L9.11213 0.135697L7.07559 0.13579Z" fill="url(#paint0_linear_220_2040)"/>
</g>
<defs>
<linearGradient id="paint0_linear_220_2040" x1="1103.38" y1="23.0964" x2="1125.43" y2="-766.014" gradientUnits="userSpaceOnUse">
<stop stop-color="#222357"/>
<stop offset="1" stop-color="#254AA5"/>
</linearGradient>
<clipPath id="clip0_220_2040">
<rect width="24" height="7.71429" fill="white"/>
</clipPath>
</defs>
</svg>
